<?xml version="1.0" standalone="no"?>
<!DOCTYPE svg PUBLIC "-//W3C//DTD SVG 20010904//EN"
 "http://www.w3.org/TR/2001/REC-SVG-20010904/DTD/svg10.dtd">
<svg version="1.0" xmlns="http://www.w3.org/2000/svg"
 width="288.000000pt" height="288.000000pt" viewBox="0 0 288.000000 288.000000"
 preserveAspectRatio="xMidYMid meet">
<metadata>
Created by potrace 1.11, written by Peter Selinger 2001-2013
</metadata>
<g transform="translate(0.000000,288.000000) scale(0.100000,-0.100000)"
fill="#000000" stroke="none">
<path d="M1330 2755 c-301 -49 -580 -216 -761 -454 -70 -92 -154 -267 -185
-386 -24 -88 -27 -120 -28 -270 -1 -186 13 -262 74 -408 66 -157 217 -343 350
-430 112 -73 219 -113 234 -88 11 18 -6 36 -85 95 -271 203 -393 421 -414 736
-30 455 253 849 715 996 41 13 131 31 200 40 107 14 141 15 235 5 279 -32 498
-135 690 -326 147 -147 225 -268 299 -471 24 -65 49 -149 56 -186 15 -82 31
-108 54 -89 23 19 21 109 -4 233 -53 257 -158 456 -339 638 -131 132 -203 183
-356 256 -177 84 -306 114 -510 120 -91 2 -170 -1 -225 -11z"/>
<path d="M674 2618 c-96 -61 -263 -226 -326 -323 -95 -145 -159 -296 -195
-465 -14 -64 -18 -127 -18 -260 1 -155 4 -187 27 -280 69 -272 202 -486 411
-662 311 -263 723 -347 1093 -223 434 146 715 537 702 978 -3 111 -5 120 -27
138 -13 10 -27 19 -31 19 -5 0 -11 -26 -15 -57 -43 -413 -179 -644 -487 -827
-436 -259 -977 -134 -1309 303 -101 133 -189 352 -210 527 -29 230 14 465 126
686 73 146 141 234 288 377 42 41 77 79 77 84 0 4 -6 15 -14 22 -11 11 -26 6
-92 -37z"/>
<path d="M1370 2501 c-47 -10 -121 -33 -165 -50 -77 -31 -246 -135 -252 -156
-2 -6 3 -20 11 -30 14 -19 15 -19 68 4 88 39 279 99 348 110 178 29 355 -3
552 -99 202 -100 339 -241 439 -454 62 -134 82 -234 83 -416 0 -130 -3 -170
-23 -249 -55 -222 -154 -394 -318 -552 -315 -304 -777 -401 -1235 -258 -54 17
-102 29 -108 27 -22 -7 19 -55 75 -85 58 -31 190 -79 285 -102 64 -16 241 -29
335 -24 319 16 669 190 869 433 94 114 112 141 165 242 142 273 175 573 97
876 -55 211 -197 431 -363 563 -144 114 -335 201 -504 229 -97 15 -263 11
-359 -9z"/>
<path d="M697 2143 c-4 -3 -7 -52 -7 -108 0 -83 3 -105 17 -116 14 -13 157
-18 521 -19 10 0 12 -31 10 -137 l-3 -138 -212 -3 -213 -2 -1 -48 c-5 -129 -1
-166 17 -179 13 -10 69 -13 216 -13 l198 0 0 -242 c0 -136 4 -250 10 -258 8
-13 63 -15 395 -15 332 0 387 2 395 15 5 8 10 59 10 112 0 135 15 128 -283
128 l-238 0 3 113 3 112 180 6 c237 8 310 32 404 134 170 184 122 491 -94 607
-102 54 -151 58 -763 58 -307 0 -562 -3 -565 -7z m1180 -265 c92 -61 78 -209
-25 -259 -35 -17 -65 -22 -155 -24 -62 -1 -124 0 -139 3 l-28 5 0 147 c0 80 3
150 8 154 4 4 73 6 153 4 138 -3 148 -4 186 -30z"/>
</g>
</svg>
